<?xml version="1.0" encoding="UTF-8"?>
<!DOCTYPE svg PUBLIC "-//W3C//DTD SVG 1.1//EN" "http://www.w3.org/Graphics/SVG/1.1/DTD/svg11.dtd">
<!-- Creator: CorelDRAW 2017 -->
<svg xmlns="http://www.w3.org/2000/svg" xml:space="preserve" width="220px" height="34px" version="1.1" style="shape-rendering:geometricPrecision; text-rendering:geometricPrecision; image-rendering:optimizeQuality; fill-rule:evenodd; clip-rule:evenodd"
viewBox="0 0 220 34"
 xmlns:xlink="http://www.w3.org/1999/xlink">
 <defs>
  <style type="text/css">
   <![CDATA[
    .fil0 {fill:none}
    .fil1 {fill:#032609;fill-rule:nonzero}
   ]]>
  </style>
 </defs>
 <g id="Слой_x0020_1">
  <metadata id="CorelCorpID_0Corel-Layer"/>
  <rect class="fil0" x="5" width="210" height="34"/>
  <path class="fil1" d="M15.505 7.7c1.479,0.946 1.97,1.589 2.351,3.353 1.544,-1.11 3.088,-2.219 4.632,-3.329 1.011,0.695 2.021,1.391 3.032,2.088 0.318,-0.403 1.01,-0.832 1.487,-0.872 0.094,1.131 -0.528,0.677 -1.038,2.565 0,4.139 0,8.277 0,12.416 0.433,0.766 0.518,1.483 1.347,0.649 0.15,0.132 0.3,0.263 0.45,0.395 -0.889,0.837 -1.778,1.675 -2.668,2.511 -0.693,0 -1.365,-0.707 -1.725,-1.255 -0.328,-0.498 -0.632,-1.157 -0.632,-1.99l0 -12.952 -1.994 -1.411 -0.504 0.367c0,2.022 0,4.045 0,6.067 0.561,0 1.122,0 1.684,0l-1.796 2.427c0,1.58 0,3.161 0,4.74 0.391,-0.078 0.43,-0.052 0.729,-0.31 0.159,0.104 0.319,0.206 0.478,0.31 -1.526,1.336 -3.051,2.672 -4.577,4.007 -0.913,-1.101 -1.82,-1.955 -2.975,-2.793 0.679,-0.454 0.894,-0.944 0.848,-2.058 -0.056,-1.345 -0.034,-3.14 -0.034,-3.896l-3.229 0c0,1.835 0.071,3.67 0,5.502 -0.041,1.077 -0.37,2.01 -0.771,2.808 -0.384,0.763 -1.467,1.658 -2.351,1.728 -2.628,0.212 -4.663,-1.361 -5.914,1.087 -0.752,-2.371 1.464,-3.676 3.515,-3.836 1.398,-0.107 2.378,-0.713 2.378,-2.323 0,-2.697 -2.346,-4.952 -4.902,-3.571 -0.301,-1.613 1.626,-2.839 3.166,-2.839 0.165,-3.408 1.429,-5.046 3.077,-6.197 1.879,-1.312 4.128,-2.524 5.936,-3.388zm-4.14 3.116c-0.529,0.345 -1.603,1.574 -1.621,2.212 -0.101,3.535 0.021,8.941 -0.002,10.466 -0.023,1.525 -1.416,2.482 -1.796,2.658 1.658,0.549 2.724,-0.463 2.725,-2.185 0.003,-3.665 0.006,-7.33 -0.001,-10.995 0,-0.512 0.352,-1.684 0.695,-2.156zm6.491 7.913c0,1.618 0,3.236 0,4.853 0,0.643 0.15,1.208 0.59,1.694 0.44,-0.074 0.729,-0.283 1.039,-0.593l0 -5.954 -1.629 0zm-6.427 -6.575l0 5.897 1.262 -1.861 1.909 0c0,-1.619 0,-3.237 0,-4.855 -1.349,-2.608 -2.553,-0.863 -3.171,0.819zm8.056 -1.157c-0.562,0.404 -1.124,0.809 -1.685,1.214 0,1.364 0,2.727 0,4.091 0.561,0 1.123,0 1.685,0 0,-1.768 0,-3.537 0,-5.305zm13.081 2.2c0.535,0.177 1.496,0.53 2.049,3.275 1.198,-1.092 2.52,-2.294 3.719,-3.386 4.975,7.374 -1.619,11.43 -6.863,14.278 -2.664,2.288 0.591,3.752 2.443,3.132 0.392,-0.131 0.703,-0.719 0.985,-0.971 0.928,-0.834 1.672,0.809 0.053,1.366 -1.875,0.644 -5.973,0.618 -5.025,-2.427 0.392,-1.219 1.715,-2.035 1.825,-3.357 0,-2.829 0,-5.655 0,-8.483 0,-1.489 -0.966,-0.846 -1.6,-0.209 -0.159,-0.16 -0.319,-0.32 -0.477,-0.48 0.963,-0.912 1.927,-1.824 2.891,-2.738zm1.993 4.318c0,2.39 0,4.779 0,7.168 2.533,-1.789 4.267,-6.28 1.783,-8.775 -0.318,0.28 -1.54,1.386 -1.783,1.607zm25.798 -9.791c1.852,0.695 3.705,1.391 5.558,2.088 0.215,-0.405 0.431,-0.809 0.645,-1.214 0.197,0.094 0.394,0.188 0.59,0.282 -0.908,1.675 -1.815,3.349 -2.723,5.024 11.014,0.814 11.016,9.31 0.756,13.623 -0.834,-0.339 -2.664,-1.12 -3.423,-1.433 -11.609,6.266 -12.371,-6.319 -2.722,-3.978 0.15,-0.292 0.321,-0.602 0.484,-0.876 -4.714,0.948 -9.546,-4.125 -4.218,-6.687 0.485,-3.177 2.855,-4.783 5.053,-6.829zm0.477 18.116c-11.174,-4.423 -8.176,4.925 0,0zm1.909 -8.607c-0.271,0.423 -0.543,0.847 -0.815,1.27 2.318,-0.095 6.062,-0.87 7.205,1.839 0.887,2.102 -1.979,3.393 -3.555,4.172 0.739,0.31 1.478,0.62 2.218,0.931 5.205,-3.416 2.882,-9.569 -5.053,-8.212zm2.884 3.788c-1.834,0.113 -3.437,0.219 -5.27,0.332 -0.169,0.358 -0.337,0.715 -0.505,1.073 0.616,0.219 4.247,1.526 4.869,1.741 1.725,-0.901 2.594,-3.091 0.906,-3.146zm-10.07 -5.792c-1.533,1.179 -0.891,4.133 5.614,3.331 0.214,-0.461 0.43,-0.922 0.646,-1.383 -2.624,0.791 -5.658,0.117 -6.26,-1.948zm2.484 -3.935c-2.175,3.052 2.299,3.512 5.498,2.722 0.326,-0.564 0.616,-1.015 0.944,-1.58 -0.42,0 -4.799,-3.448 -6.442,-1.142zm21.421 1.737c-0.634,0.723 -2.144,2.198 -3.273,2.452 0.037,6.06 0.353,8.926 -0.757,9.905 1.141,0.226 2.451,0.866 3.929,1.919 1.179,-0.893 2.358,-1.787 3.537,-2.68 -0.132,-0.133 -0.235,-0.433 -0.393,-0.593 -0.468,0.357 -0.936,0.714 -1.403,1.073 -0.603,-0.302 -1.831,-0.939 -2.247,-1.356 0,-2.68 0,-5.361 0,-8.042 0.806,0.659 1.638,1.13 2.499,1.411 0.421,-0.63 0.842,-1.26 1.263,-1.891 -0.284,-0.202 -2.718,-1.564 -3.155,-2.198zm10.37 -4.715c-2.037,1.135 -1.553,4.201 -1.516,8.081 1.273,-1.072 2.545,-2.184 3.818,-3.256 2.995,2.873 1.614,2.869 2.004,10.376 0.219,4.199 -3.326,6.254 -7.17,7.064 -0.153,-0.059 -0.435,-0.17 -0.505,-0.17 0.057,-0.14 0.113,-0.282 0.169,-0.423 2.186,-0.625 4.823,-2.281 4.831,-4.818 0.009,-2.882 -0.003,-5.8 -0.003,-8.698 -0.355,-0.33 -0.711,-0.659 -1.067,-0.989 -0.711,0.584 -1.422,1.167 -2.133,1.75 0,2.371 0,4.741 0,7.112 0.289,0.347 0.58,0.695 0.87,1.043 -0.739,0.64 -1.479,1.279 -2.218,1.919 -0.73,-0.64 -1.459,-1.279 -2.189,-1.919 0.29,-0.348 0.58,-0.696 0.87,-1.043 0,-3.039 0,-6.077 0,-9.116 -0.487,-0.019 -0.973,-0.038 -1.46,-0.056 0,-0.499 0,-0.997 0,-1.496 0.524,0 1.048,0 1.573,0 0,-1.849 0.32,-3.389 -1.348,-4.741 0.964,-0.184 1.694,0.66 2.218,1.186 0.902,-1.149 1.888,-1.806 3.256,-1.806zm11.341 4.825c1.382,1.185 2.872,1.704 4.576,2.173 0,3.246 0,6.491 0,9.736 -1.413,0.752 -2.827,1.505 -4.24,2.257 -1.802,-0.935 -3.089,-1.727 -5.053,-2.257 1.203,-1.212 0.759,-2.83 0.759,-9.567 1.232,-0.228 3.231,-1.345 3.958,-2.342zm-1.235 2.512c0,2.7 0,5.399 0,8.098 1.029,0.452 2.058,0.903 3.087,1.356 0,-2.709 0,-5.419 0,-8.128 -1.029,-0.442 -2.058,-0.884 -3.087,-1.326zm12.688 -2.512c1.382,1.184 2.872,1.704 4.576,2.173 0,3.246 0,6.491 0,9.736 -1.413,0.752 -2.827,1.505 -4.24,2.257 -1.802,-0.935 -3.051,-1.877 -5.052,-2.257 1.214,-0.852 0.683,-5.391 0.758,-9.567 1.169,-0.077 3.545,-1.519 3.958,-2.342zm-1.235 2.512c0,2.7 0,5.399 0,8.098 1.029,0.452 2.058,0.903 3.087,1.356 0,-2.709 0,-5.419 0,-8.128 -1.029,-0.442 -2.058,-0.884 -3.087,-1.326zm13.483 -7.337c-2.227,0.766 -1.459,7.55 -1.497,15.492 0.505,0.386 1.011,0.771 1.516,1.157 0.169,-0.132 0.337,-0.263 0.505,-0.395 0.141,0.16 0.281,0.32 0.422,0.48 -0.89,0.79 -1.779,1.58 -2.667,2.37 -1.046,-1.049 -2.151,-1.857 -3.537,-2.398 0.73,-0.471 1.097,-1.11 1.095,-1.919 -0.038,-11.3 0.546,-13.234 -1.207,-14.279 0.761,-0.255 2.289,1.213 2.301,1.213 0,0.033 1.176,-1.796 3.069,-1.721z"/>
 </g>
</svg>
