<?xml version="1.0" encoding="UTF-8"?>
<!DOCTYPE svg PUBLIC "-//W3C//DTD SVG 1.1//EN" "http://www.w3.org/Graphics/SVG/1.1/DTD/svg11.dtd">
<!-- Creator: CorelDRAW 2017 -->
<svg xmlns="http://www.w3.org/2000/svg" xml:space="preserve" width="130px" height="260px" version="1.1" style="shape-rendering:geometricPrecision; text-rendering:geometricPrecision; image-rendering:optimizeQuality; fill-rule:evenodd; clip-rule:evenodd"
viewBox="0 0 130 260"
 xmlns:xlink="http://www.w3.org/1999/xlink">
 <defs>
  <style type="text/css">
   <![CDATA[
    .fil1 {fill:#78003C}
    .fil0 {fill:#8F0048}
   ]]>
  </style>
 </defs>
 <g id="Слой_x0020_1">
  <metadata id="CorelCorpID_0Corel-Layer"/>
  <g id="_2176781931376">
   <g>
    <g>
     <path class="fil0" d="M72.14 18.68c-5.11,-11.53 3.4,-17.4 8.25,-17.27 13.44,0.36 11.16,17.38 2.03,17.38 -7.57,0 -7.36,-10.66 -2.04,-10.74 2.28,-0.03 4.89,1.93 4.29,4.44 7.09,-3.25 -6.78,-14.26 -10.45,-1.9 -1.78,5.99 7.82,16.75 -3.24,16.56 -0.04,1.31 0.89,3.1 3.33,3.5 1.41,0.24 -0.05,-3.61 3.68,-3.59 2.43,0.01 4.46,8.1 -2.3,8.16 2.13,2.55 4.24,4.01 9.71,-0.17 -2.96,-3.68 -7.41,-18.1 7.27,-14.26 -2.41,-3.29 -1.7,-5.99 0.23,-5.81 2.25,0.22 0.99,6.11 4.62,8.42 -6.73,0.46 -4.44,6.41 -6.99,6.59 -1.61,0.12 -2.49,-3.51 -2.49,-5.09 -3.08,0.87 -2.16,4.9 -0.18,9.16 0.67,1.46 -1.58,4.08 -2.2,5.84 6,-1.42 3.73,-7.32 6.47,-9.03 -0.9,3.95 1.48,4.76 0.88,6.16 7.05,-13.81 9.93,-0.62 5.3,2.99 -5.39,4.2 -7.79,1.75 -12.49,3.06 1.25,3.46 6.68,6.09 9.14,9.29 6,7.81 -2.62,18.06 -7.76,18.32 4.75,-4.68 3.74,-15.14 1.51,-18.24 -5.52,7.14 -1.52,24.66 -8.01,23.9 -9.19,-1.06 -6.08,-12.74 -1.8,-15.21 2.4,15.6 8.4,-11.5 3.4,-15.97 -0.33,22.6 -16.53,11.33 -12.43,6.68 8.01,5.62 1.29,-9.2 5.42,-12.37 -5.4,-3.33 -8.56,-11.82 -6.95,-14.95 -0.84,-2.53 0.99,-5.85 3.8,-5.85z"/>
     <path class="fil0" d="M87.45 44.17c8.59,1.85 14.85,-5.36 21.81,3.06 -7.94,-1.13 -16.4,3.23 -21.81,-3.06z"/>
     <path class="fil0" d="M94.3 48.86c10.11,3.63 15.86,-1.42 21.18,7.76 -6.43,-1.39 -14.38,0.82 -21.18,-7.76z"/>
     <path class="fil0" d="M97.34 68.79c4.93,0.23 8.83,-1.56 9.59,-4.24 2.36,3.4 1.64,8.75 0.25,11.25 -1.83,-4.56 -7.16,-6.36 -10.09,-4.21 -1.54,1.32 -4.12,6.29 -6.55,9.05 -2.06,-3.66 -6.95,-2.07 -6.95,2.19 0,2.91 4.52,5.74 6.66,3.55 4.27,-4.34 8.48,-12.91 11.06,-9.21 0.83,7.04 -5.82,13.36 -12.68,14.88 0.54,1.48 1.46,1.92 4.14,1.78 -2.34,3.02 0.31,5.7 3.3,3.78 -1.03,2.97 1.14,3.45 2.52,4.13 0.88,-9.19 4.93,-18.06 11.24,-15.96 2.83,4.24 -13.19,14.72 -7.37,22.1 5.04,6.39 14.37,-3.84 3.65,-5.78 4.65,-8.58 14.88,-14.32 3.83,-23.12 3.16,-2.74 3.45,-10.42 0.1,-15.89 4.13,1.65 8.27,2.32 11.78,3.04 -4.94,-11.59 -13.22,-5.27 -22.83,-11.18 4.44,5.59 8.04,7.97 -1.65,13.84z"/>
     <path class="fil0" d="M113.09 66.19c1.91,2.12 1.2,9.81 2.34,13.71 2.93,10 10.18,7.6 12.53,12.3 1.01,-7.47 -6.5,-8.72 -8.65,-16.29 1.8,1.53 4.58,2.23 9.74,1.34 -8.14,-3.52 -5.01,-7.97 -15.96,-11.06z"/>
     <path class="fil0" d="M124.93 99.83c-0.94,1.12 -4.66,4.29 -0.38,4.85 4.29,0.56 5.22,-0.56 4.66,-3.08 -0.56,-2.51 -0.37,-10.53 -8.01,-10.25 -7.65,0.28 -11.66,10.81 -6.9,12.68 4.75,1.86 4.66,-0.75 4.01,-3.36 -0.65,-2.61 1.02,-4.85 3.91,-4.85 2.89,0 3.73,2.8 2.71,4.01z"/>
     <path class="fil0" d="M129.03 126.96c-4.03,-4.33 -7.48,-7.93 -0.13,-14.26 1.13,-0.97 0.47,-4.16 0.61,-5.28 0.28,-2.32 -6.8,-2.07 -10.18,-0.69 -16.52,6.74 -9.79,25.85 1.03,21.26 -8.19,-3.87 -3.82,-15.85 3.26,-15.85 -2.71,4.67 -6.81,12.64 5.41,14.82z"/>
    </g>
    <g>
     <circle class="fil0" cx="65" cy="17.48" r="4.13"/>
     <path class="fil0" d="M64.93 10.48c0.95,-1.55 3.89,-1.27 1.86,-5.98 2.51,1.63 2.67,0.44 4.46,1.6 0.47,-4.87 -2.96,-5.59 -6.12,-5.59 -3.17,0 -6.85,0.72 -6.38,5.59 1.79,-1.16 1.95,0.03 4.46,-1.6 -2.03,4.71 0.76,4.43 1.72,5.98z"/>
    </g>
    <g>
     <path class="fil0" d="M57.86 18.68c5.11,-11.53 -3.4,-17.4 -8.25,-17.27 -13.44,0.36 -11.16,17.38 -2.03,17.38 7.57,0 7.36,-10.66 2.04,-10.74 -2.28,-0.03 -4.9,1.93 -4.29,4.44 -7.09,-3.25 6.78,-14.26 10.45,-1.9 1.78,5.99 -7.82,16.75 3.24,16.56 0.04,1.31 -0.89,3.1 -3.33,3.5 -1.41,0.24 0.04,-3.61 -3.68,-3.59 -2.43,0.01 -4.46,8.1 2.3,8.16 -2.13,2.55 -4.24,4.01 -9.71,-0.17 2.96,-3.68 7.41,-18.1 -7.27,-14.26 2.41,-3.29 1.7,-5.99 -0.23,-5.81 -2.25,0.22 -0.99,6.11 -4.62,8.42 6.73,0.46 4.44,6.41 6.99,6.59 1.61,0.12 2.49,-3.51 2.48,-5.09 3.09,0.87 2.16,4.9 0.19,9.16 -0.67,1.46 1.58,4.08 2.2,5.84 -6,-1.42 -3.73,-7.32 -6.47,-9.03 0.9,3.95 -1.48,4.76 -0.88,6.16 -7.06,-13.81 -9.93,-0.62 -5.3,2.99 5.39,4.2 7.79,1.75 12.49,3.06 -1.25,3.46 -6.68,6.09 -9.14,9.29 -6.01,7.81 2.62,18.06 7.75,18.32 -4.74,-4.68 -3.73,-15.14 -1.5,-18.24 5.52,7.14 1.52,24.66 8.01,23.9 9.19,-1.06 6.08,-12.74 1.8,-15.21 -2.4,15.6 -8.4,-11.5 -3.4,-15.97 0.32,22.6 16.53,11.33 12.43,6.68 -8.01,5.62 -1.29,-9.2 -5.42,-12.37 5.4,-3.33 8.55,-11.82 6.95,-14.95 0.84,-2.53 -0.99,-5.85 -3.8,-5.85z"/>
     <path class="fil0" d="M42.55 44.17c-8.59,1.85 -14.85,-5.36 -21.81,3.06 7.94,-1.13 16.4,3.23 21.81,-3.06z"/>
     <path class="fil0" d="M35.7 48.86c-10.11,3.63 -15.86,-1.42 -21.18,7.76 6.42,-1.39 14.38,0.82 21.18,-7.76z"/>
     <path class="fil0" d="M32.66 68.79c-4.93,0.23 -8.83,-1.56 -9.59,-4.24 -2.36,3.4 -1.64,8.75 -0.26,11.25 1.84,-4.56 7.17,-6.36 10.1,-4.21 1.54,1.32 4.12,6.29 6.54,9.05 2.07,-3.66 6.95,-2.07 6.95,2.19 0,2.91 -4.51,5.74 -6.65,3.55 -4.27,-4.34 -8.48,-12.91 -11.06,-9.21 -0.83,7.04 5.82,13.36 12.68,14.88 -0.54,1.48 -1.46,1.92 -4.14,1.78 2.34,3.02 -0.31,5.7 -3.3,3.78 1.03,2.97 -1.15,3.45 -2.52,4.13 -0.88,-9.19 -4.93,-18.06 -11.24,-15.96 -2.83,4.24 13.19,14.72 7.37,22.1 -5.04,6.39 -14.37,-3.84 -3.65,-5.78 -4.65,-8.58 -14.88,-14.32 -3.83,-23.12 -3.16,-2.74 -3.45,-10.42 -0.1,-15.89 -4.13,1.65 -8.28,2.32 -11.78,3.04 4.93,-11.59 13.22,-5.27 22.83,-11.18 -4.44,5.59 -8.04,7.97 1.65,13.84z"/>
     <path class="fil0" d="M16.91 66.19c-1.91,2.12 -1.2,9.81 -2.35,13.71 -2.93,10 -10.17,7.6 -12.52,12.3 -1.01,-7.47 6.5,-8.72 8.65,-16.29 -1.8,1.53 -4.58,2.23 -9.74,1.34 8.14,-3.52 5.01,-7.97 15.96,-11.06z"/>
     <path class="fil0" d="M5.07 99.83c0.94,1.12 4.66,4.29 0.38,4.85 -4.29,0.56 -5.22,-0.56 -4.66,-3.08 0.55,-2.51 0.37,-10.53 8.01,-10.25 7.65,0.28 11.65,10.81 6.9,12.68 -4.75,1.86 -4.66,-0.75 -4.01,-3.36 0.65,-2.61 -1.02,-4.85 -3.91,-4.85 -2.89,0 -3.73,2.8 -2.71,4.01z"/>
     <path class="fil0" d="M0.97 126.96c4.03,-4.33 7.48,-7.93 0.12,-14.26 -1.12,-0.97 -0.46,-4.16 -0.6,-5.28 -0.28,-2.32 6.8,-2.07 10.18,-0.69 16.52,6.74 9.79,25.85 -1.03,21.26 8.18,-3.87 3.82,-15.85 -3.26,-15.85 2.71,4.67 6.8,12.64 -5.41,14.82z"/>
    </g>
    <g>
     <path class="fil0" d="M6.43 147.89c-5.12,-11.53 3.4,-17.39 8.24,-17.26 13.44,0.36 11.16,17.37 2.03,17.37 -7.57,0 -7.36,-10.66 -2.04,-10.73 2.29,-0.04 4.9,1.92 4.29,4.44 7.09,-3.26 -6.78,-14.26 -10.45,-1.91 -1.78,5.99 7.83,16.75 -3.24,16.57 -0.04,1.3 0.89,3.09 3.33,3.5 1.41,0.23 -0.04,-3.62 3.69,-3.6 2.42,0.01 4.46,8.1 -2.31,8.16 2.14,2.56 4.24,4.02 9.71,-0.17 -2.96,-3.68 -7.41,-18.1 7.27,-14.26 -2.41,-3.29 -1.7,-5.99 0.23,-5.81 2.25,0.22 0.99,6.11 4.62,8.42 -6.73,0.46 -4.43,6.41 -6.98,6.59 -1.62,0.12 -2.5,-3.51 -2.49,-5.08 -3.08,0.86 -2.16,4.89 -0.19,9.15 0.67,1.46 -1.58,4.08 -2.2,5.84 6,-1.41 3.74,-7.32 6.48,-9.03 -0.91,3.95 1.47,4.77 0.88,6.16 7.05,-13.8 9.92,-0.62 5.3,2.99 -5.4,4.2 -7.79,1.76 -12.5,3.06 1.25,3.46 6.68,6.1 9.14,9.29 6.01,7.81 -2.62,18.07 -7.75,18.32 4.75,-4.68 3.74,-15.14 1.5,-18.24 -5.52,7.14 -1.52,24.66 -8,23.91 -9.2,-1.07 -6.09,-12.75 -1.8,-15.22 2.39,15.61 8.39,-11.5 3.4,-15.97 -0.33,22.6 -16.54,11.33 -12.44,6.69 8.01,5.61 1.29,-9.21 5.42,-12.38 -5.39,-3.32 -8.55,-11.82 -6.95,-14.94 -0.84,-2.53 1,-5.86 3.81,-5.86z"/>
     <path class="fil0" d="M21.73 173.38c8.6,1.86 14.85,-5.35 21.82,3.07 -7.95,-1.14 -16.41,3.23 -21.82,-3.07z"/>
     <path class="fil0" d="M28.58 178.07c10.12,3.64 15.87,-1.42 21.18,7.76 -6.42,-1.39 -14.38,0.82 -21.18,-7.76z"/>
     <path class="fil0" d="M31.62 198.01c4.93,0.23 8.84,-1.57 9.59,-4.25 2.37,3.4 1.65,8.76 0.26,11.26 -1.84,-4.56 -7.17,-6.37 -10.1,-4.22 -1.54,1.32 -4.11,6.29 -6.54,9.05 -2.07,-3.66 -6.95,-2.06 -6.95,2.19 0,2.91 4.51,5.74 6.65,3.56 4.28,-4.35 8.48,-12.91 11.07,-9.22 0.82,7.04 -5.83,13.36 -12.68,14.88 0.53,1.49 1.45,1.92 4.13,1.78 -2.33,3.02 0.31,5.71 3.31,3.78 -1.03,2.98 1.14,3.46 2.51,4.14 0.88,-9.2 4.93,-18.06 11.24,-15.97 2.83,4.24 -13.19,14.72 -7.37,22.1 5.04,6.39 14.37,-3.84 3.65,-5.78 4.65,-8.58 14.89,-14.32 3.83,-23.11 3.16,-2.74 3.46,-10.43 0.1,-15.9 4.13,1.66 8.28,2.33 11.78,3.04 -4.93,-11.59 -13.22,-5.26 -22.83,-11.18 4.44,5.59 8.04,7.97 -1.65,13.85z"/>
     <path class="fil0" d="M47.38 195.4c1.91,2.12 1.19,9.82 2.34,13.71 2.93,10 10.17,7.6 12.53,12.31 1,-7.48 -6.51,-8.72 -8.66,-16.3 1.8,1.53 4.58,2.24 9.75,1.34 -8.15,-3.52 -5.02,-7.97 -15.96,-11.06z"/>
     <path class="fil0" d="M59.21 229.05c-0.94,1.11 -4.66,4.28 -0.37,4.84 4.28,0.56 5.22,-0.55 4.66,-3.07 -0.56,-2.52 -0.38,-10.54 -8.02,-10.26 -7.64,0.28 -11.65,10.82 -6.9,12.68 4.76,1.87 4.66,-0.74 4.01,-3.35 -0.65,-2.61 1.03,-4.85 3.92,-4.85 2.89,0 3.72,2.79 2.7,4.01z"/>
     <path class="fil0" d="M63.31 256.17c-4.03,-4.32 -7.47,-7.92 -0.12,-14.26 1.12,-0.97 0.46,-4.16 0.6,-5.28 0.28,-2.32 -6.8,-2.06 -10.17,-0.69 -16.53,6.74 -9.8,25.85 1.02,21.26 -8.18,-3.87 -3.82,-15.85 3.26,-15.85 -2.71,4.67 -6.8,12.64 5.41,14.82z"/>
    </g>
    <g>
     <path class="fil0" d="M123.57 147.89c5.12,-11.53 -3.4,-17.39 -8.24,-17.26 -13.44,0.36 -11.17,17.37 -2.04,17.37 7.58,0 7.37,-10.66 2.05,-10.73 -2.29,-0.04 -4.9,1.92 -4.29,4.44 -7.09,-3.26 6.78,-14.26 10.45,-1.91 1.77,5.99 -7.83,16.75 3.24,16.57 0.04,1.3 -0.89,3.09 -3.34,3.5 -1.41,0.23 0.05,-3.62 -3.68,-3.6 -2.42,0.01 -4.46,8.1 2.31,8.16 -2.14,2.56 -4.24,4.02 -9.71,-0.17 2.95,-3.68 7.41,-18.1 -7.27,-14.26 2.41,-3.29 1.7,-5.99 -0.24,-5.81 -2.24,0.22 -0.98,6.11 -4.62,8.42 6.73,0.46 4.44,6.41 6.99,6.59 1.62,0.12 2.5,-3.51 2.49,-5.08 3.08,0.86 2.16,4.89 0.19,9.15 -0.67,1.46 1.58,4.08 2.2,5.84 -6,-1.41 -3.74,-7.32 -6.48,-9.03 0.91,3.95 -1.48,4.77 -0.88,6.16 -7.05,-13.8 -9.92,-0.62 -5.3,2.99 5.39,4.2 7.79,1.76 12.5,3.06 -1.25,3.46 -6.68,6.1 -9.14,9.29 -6.01,7.81 2.62,18.07 7.75,18.32 -4.75,-4.68 -3.74,-15.14 -1.5,-18.24 5.52,7.14 1.51,24.66 8,23.91 9.2,-1.07 6.09,-12.75 1.8,-15.22 -2.39,15.61 -8.39,-11.5 -3.4,-15.97 0.33,22.6 16.54,11.33 12.43,6.69 -8,5.61 -1.28,-9.21 -5.41,-12.38 5.39,-3.32 8.55,-11.82 6.95,-14.94 0.84,-2.53 -1,-5.86 -3.81,-5.86z"/>
     <path class="fil0" d="M108.27 173.38c-8.6,1.86 -14.85,-5.35 -21.82,3.07 7.95,-1.14 16.41,3.23 21.82,-3.07z"/>
     <path class="fil0" d="M101.42 178.07c-10.12,3.64 -15.87,-1.42 -21.18,7.76 6.42,-1.39 14.38,0.82 21.18,-7.76z"/>
     <path class="fil0" d="M98.37 198.01c-4.92,0.23 -8.83,-1.57 -9.59,-4.25 -2.36,3.4 -1.64,8.76 -0.25,11.26 1.84,-4.56 7.17,-6.37 10.1,-4.22 1.54,1.32 4.11,6.29 6.54,9.05 2.07,-3.66 6.95,-2.06 6.95,2.19 0,2.91 -4.51,5.74 -6.66,3.56 -4.27,-4.35 -8.47,-12.91 -11.06,-9.22 -0.82,7.04 5.83,13.36 12.68,14.88 -0.53,1.49 -1.45,1.92 -4.13,1.78 2.33,3.02 -0.32,5.71 -3.31,3.78 1.03,2.98 -1.14,3.46 -2.51,4.14 -0.89,-9.2 -4.93,-18.06 -11.24,-15.97 -2.83,4.24 13.18,14.72 7.37,22.1 -5.05,6.39 -14.38,-3.84 -3.65,-5.78 -4.66,-8.58 -14.89,-14.32 -3.83,-23.11 -3.16,-2.74 -3.46,-10.43 -0.11,-15.9 -4.12,1.66 -8.27,2.33 -11.77,3.04 4.93,-11.59 13.22,-5.26 22.83,-11.18 -4.44,5.59 -8.05,7.97 1.64,13.85z"/>
     <path class="fil0" d="M82.62 195.4c-1.91,2.12 -1.2,9.82 -2.34,13.71 -2.93,10 -10.17,7.6 -12.53,12.31 -1,-7.48 6.51,-8.72 8.66,-16.3 -1.8,1.53 -4.58,2.24 -9.75,1.34 8.15,-3.52 5.02,-7.97 15.96,-11.06z"/>
     <path class="fil0" d="M70.79 229.05c0.94,1.11 4.66,4.28 0.37,4.84 -4.29,0.56 -5.22,-0.55 -4.66,-3.07 0.56,-2.52 0.37,-10.54 8.02,-10.26 7.64,0.28 11.65,10.82 6.9,12.68 -4.76,1.87 -4.66,-0.74 -4.01,-3.35 0.65,-2.61 -1.03,-4.85 -3.92,-4.85 -2.89,0 -3.72,2.79 -2.7,4.01z"/>
     <path class="fil0" d="M66.69 256.17c4.02,-4.32 7.47,-7.92 0.12,-14.26 -1.12,-0.97 -0.46,-4.16 -0.6,-5.28 -0.29,-2.32 6.8,-2.06 10.17,-0.69 16.52,6.74 9.8,25.85 -1.02,21.26 8.18,-3.87 3.81,-15.85 -3.27,-15.85 2.71,4.67 6.81,12.64 -5.4,14.82z"/>
    </g>
    <path class="fil0" d="M128.84 178.97c-0.88,-4.2 0.97,-9.62 0.5,-13.6 -1.47,3.68 -6.69,3.01 -6.22,8.8 1.38,-2.79 2.72,-1.8 3.8,-2.31 -2.04,4.71 0.96,5.55 1.92,7.11z"/>
    <path class="fil0" d="M1.16 178.97c0.87,-4.2 -0.97,-9.62 -0.5,-13.6 1.47,3.68 6.69,3.01 6.22,8.8 -1.38,-2.79 -2.72,-1.8 -3.8,-2.31 2.04,4.71 -0.96,5.55 -1.92,7.11z"/>
    <path class="fil0" d="M66.6 45.1c1.49,0.62 2.53,2.09 2.53,3.81 0,2.28 -1.85,4.13 -4.13,4.13 -2.28,0 -4.14,-1.85 -4.14,-4.13 0,-1.69 1.02,-3.15 2.48,-3.79 -0.83,-0.7 -1.36,-1.73 -0.13,-4.57 -2.51,1.64 -2.67,0.44 -4.46,1.6 -0.47,-4.87 3.21,-5.59 6.38,-5.59 3.16,0 6.59,0.72 6.12,5.59 -1.79,-1.16 -1.95,0.04 -4.46,-1.6 1.21,2.8 0.66,3.84 -0.19,4.55z"/>
   </g>
   <g>
    <g>
     <path class="fil1" d="M64.87 88.98c1.61,1.04 0.23,6.53 2.56,6.99 2.1,0.41 5,-3.65 7.33,-3.93 -1.26,1.74 -2.17,3.77 -4.52,7.12 1.06,-0.06 3.3,1 5.31,2.87 2.01,-1.14 3.21,-4.26 4.37,-6.55 0.55,-1.08 2.16,-3.2 6.05,-1.91 0.03,-4.36 -2.87,-6.06 -7.41,-3.17 4.91,-12.23 1.35,-12.13 -7.38,-3.91 2.21,-5.35 4.5,-21.63 -4.03,-9.45 0.14,-2.78 1.51,-7.89 -1.91,-9.82 -3.41,1.93 -2.53,7.04 -2.39,9.82 -8.53,-12.18 -6.24,4.1 -4.03,9.45 -8.73,-8.22 -12.29,-8.32 -7.38,3.91 -4.54,-2.89 -7.44,-1.19 -7.41,3.17 3.89,-1.29 5.5,0.83 6.05,1.91 1.16,2.29 2.36,5.41 4.37,6.55 2.01,-1.87 4.25,-2.93 5.31,-2.87 -2.35,-3.35 -3.26,-5.38 -4.52,-7.12 2.33,0.28 5.23,4.34 7.33,3.93 2.33,-0.46 0.7,-5.95 2.3,-6.99z"/>
     <path class="fil1" d="M74.07 108.05c8.57,-13.03 13.7,-12.82 10.25,-4.28 8.28,-5.44 15.31,2.38 13.1,7.73 -2.29,-2.26 -9.46,-2.78 -13.59,1.46 4.78,3.61 9.52,-2.17 13.18,0.84 -2.36,0.57 -3.35,1.73 -5.94,4.15 5.22,2.36 9.16,-6.04 11.55,-2.51 1.75,2.58 0,6.89 -5.6,5.85 1.42,4.36 5.28,0.71 7.06,3.8 1.42,2.49 -4.46,5.99 -10.67,2.36 -1.1,5.92 8.91,3.05 9.17,6.84 0.1,1.49 -2.24,0.18 -2.74,1.85 3.35,3.5 3.31,9.56 -6.69,2.92 -0.7,1.56 3.75,5.75 3.79,8.71 0.03,1.67 -1.22,3.56 -5.05,0.08 3.33,5.31 0.58,6.08 0.31,6.22 -0.55,0.29 -3.23,-0.17 -4.61,-4.79 -1.64,3.5 -3.25,3.05 -3.75,2.3 -1.44,-2.21 2.05,-5.53 0.72,-8.77 -1.65,-4.01 -3.25,-7.42 -2.99,-10.24 0.13,-1.38 3.54,5.07 3.48,3.68 -0.1,-2.44 -1.64,-6.91 -1.13,-8.73 1.63,2.34 3.01,3.5 4.29,5.12 0.1,-2.38 -2.35,-7.31 -3.55,-8.09 4.54,0.67 3.64,0.43 7.7,0.1 -2.71,-1.9 -6.89,-3.15 -8.08,-4.87 2.44,0.12 3.62,-0.88 4.17,-2.37 -6.86,0.95 -11.04,-2.71 -12.89,-5.08 2.64,1.02 3.92,0.4 5.6,-0.86 -3.24,-3.22 -6.54,-3.07 -7.09,-3.42z"/>
     <path class="fil1" d="M73.85 113.28c1.75,3.67 7.75,6.02 7.83,12.19 0.06,4.67 -3.37,9.13 -4.09,12.5 -1.26,5.96 5.52,2.49 3.77,5.63 -3.35,6.01 -12.64,0.85 -9,-5.65 10.06,-18 0.66,-15.75 1.49,-24.67z"/>
     <path class="fil1" d="M65 98.4c2.43,0 2.43,6.28 0,6.28 -2.44,0 -2.44,-6.28 0,-6.28z"/>
     <path class="fil1" d="M57.25 102.86c1.22,-2.1 6.65,1.04 5.44,3.14 -1.22,2.11 -6.66,-1.03 -5.44,-3.14z"/>
     <path class="fil1" d="M57.24 111.81c-1.22,-2.11 4.22,-5.25 5.44,-3.14 1.21,2.11 -4.22,5.24 -5.44,3.14z"/>
     <path class="fil1" d="M64.98 116.29c-2.44,0 -2.44,-6.28 0,-6.28 2.43,0 2.43,6.28 0,6.28z"/>
     <path class="fil1" d="M72.73 111.83c-1.22,2.1 -6.66,-1.04 -5.44,-3.14 1.22,-2.11 6.65,1.03 5.44,3.14z"/>
     <path class="fil1" d="M72.74 102.88c1.22,2.11 -4.22,5.25 -5.44,3.14 -1.22,-2.11 4.22,-5.25 5.44,-3.14z"/>
     <path class="fil1" d="M56.15 113.28c-1.75,3.67 -7.76,6.02 -7.83,12.19 -0.06,4.67 3.37,9.13 4.08,12.5 1.27,5.96 -5.51,2.49 -3.76,5.63 3.35,6.01 12.63,0.85 8.99,-5.65 -10.06,-18 -0.66,-15.75 -1.48,-24.67z"/>
     <path class="fil1" d="M55.93 108.05c-8.57,-13.03 -13.7,-12.82 -10.25,-4.28 -8.28,-5.44 -15.31,2.38 -13.1,7.73 2.29,-2.26 9.45,-2.78 13.58,1.46 -4.78,3.61 -9.51,-2.17 -13.17,0.84 2.36,0.57 3.35,1.73 5.94,4.15 -5.22,2.36 -9.16,-6.04 -11.55,-2.51 -1.75,2.58 0,6.89 5.6,5.85 -1.42,4.36 -5.28,0.71 -7.06,3.8 -1.42,2.49 4.46,5.99 10.67,2.36 1.1,5.92 -8.91,3.05 -9.17,6.84 -0.1,1.49 2.24,0.18 2.74,1.85 -3.35,3.5 -3.31,9.56 6.69,2.92 0.7,1.56 -3.75,5.75 -3.79,8.71 -0.03,1.67 1.22,3.56 5.05,0.08 -3.33,5.31 -0.58,6.08 -0.31,6.22 0.55,0.29 3.23,-0.17 4.61,-4.79 1.63,3.5 3.25,3.05 3.74,2.3 1.45,-2.21 -2.04,-5.53 -0.71,-8.77 1.64,-4.01 3.25,-7.42 2.98,-10.24 -0.13,-1.38 -3.53,5.07 -3.48,3.68 0.11,-2.44 1.65,-6.91 1.14,-8.73 -1.63,2.34 -3.01,3.5 -4.29,5.12 -0.1,-2.38 2.35,-7.31 3.55,-8.09 -4.54,0.67 -3.65,0.43 -7.7,0.1 2.7,-1.9 6.89,-3.15 8.08,-4.87 -2.44,0.12 -3.62,-0.88 -4.17,-2.37 6.86,0.95 11.03,-2.71 12.89,-5.08 -2.64,1.02 -3.92,0.4 -5.6,-0.86 3.24,-3.22 6.54,-3.07 7.09,-3.42z"/>
     <path class="fil1" d="M68.38 114.01c8.6,4.21 7.47,24.53 -3.38,24.53 -10.84,0 -11.97,-20.25 -3.42,-24.51 0.21,2.62 1.34,5.02 3.4,5.02 2.06,0 3.19,-2.41 3.4,-5.04z"/>
     <path class="fil1" d="M48.62 148.46c4.93,5.51 0.46,8.04 -5.57,5.93 7.01,9.44 16.23,-6.46 5.57,-5.93z"/>
     <path class="fil1" d="M64.89 185.9c0.91,3.41 2.77,5 6.36,6.1 1.9,0.59 -2.07,-4.91 -0.97,-5.63 3.1,3.91 5.84,1.48 6.13,-0.66 -4.98,-0.28 -5.19,-5.01 -6.79,-10.18 7.08,15.73 12.46,5.02 8.82,2.6 3.77,-0.27 5.9,-3.13 5.89,-5.2 -7.68,1.37 -8.85,-2.3 -9.06,-3.71 9.62,5.47 12.28,0.06 9.23,-2.83 6.15,-0.67 6.59,-8.45 2.53,-8.25 -1.5,3.22 -3.6,2.61 -8.76,2.98 -0.42,0.03 -1.58,1.29 2.69,4.61 2.22,1.73 0.83,3.11 -5.69,-1.39 -3.41,-2.34 -6.6,4.39 -1,9.67 2.16,2.04 -4.36,1.93 -4.81,-2.68 -0.6,-6.19 -4.25,0.21 -2.76,2.78 2.55,4.38 1.81,6.76 0.86,7.82 -0.53,0.6 -1.72,-1.13 -2.58,-3.7 -0.86,2.57 -2.01,4.3 -2.54,3.7 -0.95,-1.06 -1.69,-3.44 0.86,-7.82 1.49,-2.57 -2.16,-8.97 -2.76,-2.78 -0.45,4.61 -6.97,4.72 -4.81,2.68 5.6,-5.28 2.41,-12.01 -1,-9.67 -6.52,4.5 -7.91,3.12 -5.69,1.39 4.27,-3.32 3.11,-4.58 2.69,-4.61 -5.16,-0.37 -7.26,0.24 -8.76,-2.98 -4.06,-0.2 -3.62,7.58 2.53,8.25 -3.05,2.89 -0.39,8.3 9.23,2.83 -0.21,1.41 -1.38,5.08 -9.06,3.71 -0.01,2.07 2.12,4.93 5.89,5.2 -3.64,2.42 1.74,13.13 8.82,-2.6 -1.6,5.17 -1.81,9.9 -6.79,10.18 0.29,2.14 3.03,4.57 6.13,0.66 1.1,0.72 -2.87,6.22 -0.97,5.63 3.59,-1.1 5.22,-2.69 6.14,-6.1z"/>
     <path class="fil1" d="M65 202.7c1.63,-1.73 3.65,-4.53 1.55,-6.98 3.47,0.1 -0.2,-4.34 -1.64,-5.62 -1.45,1.28 -4.93,5.72 -1.46,5.62 -2.1,2.45 -0.08,5.25 1.55,6.98z"/>
     <path class="fil1" d="M81.38 148.46c-4.93,5.51 -0.46,8.04 5.57,5.93 -7.01,9.44 -16.24,-6.46 -5.57,-5.93z"/>
     <path class="fil1" d="M64.96 168.81c1.7,-2.86 4.64,-1.27 5.75,-4.34 1.12,-3.08 -3.6,-3.34 -2.12,-7.27 3.29,3.42 10.02,7.38 8.28,-0.69 -3.25,2.74 -3.97,-1.84 -3.94,-3.97 4.5,0.14 -0.27,-4.94 -2.83,-5.1 3.09,-4.48 -3.51,-4.02 -5.19,-7.21 -1.69,3.19 -8.1,2.73 -5.01,7.21 -2.57,0.16 -7.33,5.24 -2.84,5.1 0.04,2.13 -0.68,6.71 -3.93,3.97 -1.74,8.07 4.99,4.11 8.28,0.69 1.48,3.93 -3.24,4.19 -2.12,7.27 1.11,3.07 3.97,1.48 5.67,4.34zm0.04 -19.68c1.87,0 1.53,2.63 3.38,1.12 2.01,-1.63 -2.47,-3.51 -3.35,-5.88 -0.88,2.37 -5.42,4.25 -3.41,5.88 1.85,1.51 1.52,-1.12 3.38,-1.12z"/>
    </g>
    <g>
     <g>
      <g>
       <path class="fil1" d="M29.14 0c2.22,2.1 8.24,1.06 8.44,3.98 0.1,1.49 -2.24,0.18 -2.74,1.86 3.35,3.49 3.31,9.55 -6.69,2.91 -0.7,1.56 3.75,5.75 3.79,8.72 0.03,1.66 -1.22,3.55 -5.05,0.07 3.32,5.31 0.58,6.08 0.31,6.22 -0.56,0.29 -3.24,-0.17 -4.61,-4.79 -1.64,3.5 -3.26,3.05 -3.75,2.3 -1.44,-2.21 2.05,-5.53 0.72,-8.77 -1.65,-4 -3.25,-7.42 -2.99,-10.24 0.13,-1.38 3.54,5.07 3.48,3.68 -0.06,-1.56 -0.72,-3.95 -1.05,-5.94l2.16 0c0.72,0.8 1.4,1.51 2.04,2.33 0.03,-0.64 -0.12,-1.46 -0.39,-2.33l6.33 0z"/>
       <path class="fil1" d="M15.71 0c-1.06,2.85 -2.66,5.48 -3.12,7.66 -1.26,5.96 5.52,2.49 3.77,5.63 -3.35,6.01 -12.64,0.85 -9,-5.65 1.73,-3.09 2.88,-5.58 3.61,-7.64l4.74 0z"/>
       <path class="fil1" d="M8.57 0c-1.1,4.55 -3.95,8.24 -8.57,8.24l0 -8.24 8.57 0z"/>
       <path class="fil1" d="M0 55.99c0.95,3.14 2.8,4.64 6.25,5.71 1.9,0.58 -2.07,-4.92 -0.97,-5.64 3.1,3.91 5.84,1.48 6.13,-0.66 -4.98,-0.27 -5.19,-5.01 -6.79,-10.18 7.08,15.73 12.46,5.03 8.82,2.6 3.77,-0.27 5.9,-3.13 5.89,-5.19 -7.68,1.36 -8.85,-2.31 -9.06,-3.72 9.62,5.47 12.28,0.07 9.23,-2.83 6.14,-0.66 6.59,-8.45 2.53,-8.25 -1.5,3.23 -3.6,2.61 -8.76,2.98 -0.42,0.03 -1.58,1.29 2.69,4.61 2.22,1.73 0.83,3.11 -5.69,-1.38 -3.41,-2.35 -6.61,4.38 -1,9.66 2.16,2.04 -4.36,1.93 -4.81,-2.68 -0.6,-6.19 -4.26,0.21 -2.76,2.78 2.55,4.39 1.81,6.76 0.86,7.83 -0.52,0.59 -1.7,-1.11 -2.56,-3.65l0 8.01z"/>
       <path class="fil1" d="M0 72.39c1.63,-1.73 3.65,-4.53 1.55,-6.98 3.4,0.1 -0.05,-4.16 -1.55,-5.53l0 12.51z"/>
       <path class="fil1" d="M16.38 18.15c-4.93,5.51 -0.46,8.04 5.57,5.94 -7.01,9.43 -16.24,-6.47 -5.57,-5.94z"/>
       <path class="fil1" d="M0 38.44c1.7,-2.77 4.61,-1.23 5.71,-4.28 1.12,-3.08 -3.6,-3.34 -2.12,-7.27 3.29,3.42 10.02,7.38 8.28,-0.69 -3.25,2.74 -3.97,-1.84 -3.94,-3.97 4.5,0.15 -0.27,-4.94 -2.83,-5.1 3.04,-4.4 -3.28,-4.04 -5.1,-7.04l0 4.04 0.03 -0.07c0.88,2.37 5.36,4.25 3.35,5.89 -1.85,1.5 -1.51,-1.13 -3.38,-1.13l0 0 0 19.62z"/>
      </g>
      <g>
       <path class="fil1" d="M114.29 0c1.06,2.85 2.66,5.48 3.12,7.66 1.26,5.96 -5.52,2.49 -3.77,5.63 3.35,6.01 12.63,0.85 9,-5.65 -1.73,-3.09 -2.89,-5.58 -3.62,-7.64l-4.73 0z"/>
       <path class="fil1" d="M100.86 0c-2.22,2.1 -8.24,1.06 -8.44,3.98 -0.1,1.49 2.24,0.18 2.74,1.86 -3.35,3.49 -3.31,9.55 6.69,2.91 0.7,1.56 -3.75,5.75 -3.79,8.72 -0.03,1.66 1.22,3.55 5.05,0.07 -3.33,5.31 -0.58,6.08 -0.31,6.22 0.55,0.29 3.23,-0.17 4.61,-4.79 1.63,3.5 3.25,3.05 3.74,2.3 1.45,-2.21 -2.04,-5.53 -0.71,-8.77 1.65,-4 3.25,-7.42 2.98,-10.24 -0.12,-1.38 -3.53,5.07 -3.47,3.68 0.06,-1.56 0.72,-3.95 1.04,-5.94l-2.15 0c-0.72,0.8 -1.4,1.51 -2.05,2.33 -0.02,-0.64 0.13,-1.46 0.4,-2.33l-6.33 0z"/>
       <path class="fil1" d="M130 8.24l0 0c-4.62,0 -7.47,-3.69 -8.57,-8.24l8.57 0 0 8.24z"/>
       <path class="fil1" d="M113.62 18.15c4.93,5.51 0.46,8.04 -5.57,5.94 7.01,9.43 16.23,-6.47 5.57,-5.94z"/>
       <path class="fil1" d="M129.89 55.59c0.03,0.14 0.07,0.27 0.11,0.4l0 -8.01 -0.02 -0.06c-0.86,2.57 -2.01,4.3 -2.54,3.71 -0.95,-1.07 -1.69,-3.44 0.86,-7.83 1.5,-2.57 -2.16,-8.97 -2.76,-2.78 -0.45,4.61 -6.97,4.72 -4.81,2.68 5.6,-5.28 2.41,-12.01 -1,-9.66 -6.52,4.49 -7.91,3.11 -5.69,1.38 4.27,-3.32 3.11,-4.58 2.69,-4.61 -5.16,-0.37 -7.26,0.25 -8.76,-2.98 -4.06,-0.2 -3.61,7.59 2.53,8.25 -3.05,2.9 -0.39,8.3 9.23,2.83 -0.21,1.41 -1.38,5.08 -9.06,3.72 -0.01,2.06 2.12,4.92 5.89,5.19 -3.64,2.43 1.74,13.13 8.82,-2.6 -1.6,5.17 -1.81,9.91 -6.79,10.18 0.29,2.14 3.03,4.57 6.13,0.66 1.1,0.72 -2.87,6.22 -0.97,5.64 3.59,-1.11 5.22,-2.7 6.14,-6.11z"/>
       <path class="fil1" d="M130 72.39l0 0 0 -12.51 -0.09 -0.09c-1.45,1.28 -4.93,5.73 -1.46,5.62 -2.1,2.45 -0.08,5.25 1.55,6.98z"/>
       <path class="fil1" d="M129.96 38.51l0.04 -0.07 0 -19.62c-1.86,0 -1.53,2.63 -3.38,1.13 -1.99,-1.62 2.44,-3.48 3.38,-5.82l0 -4.04c-0.03,-0.06 -0.06,-0.11 -0.09,-0.17 -1.69,3.19 -8.1,2.73 -5.01,7.21 -2.57,0.16 -7.33,5.25 -2.84,5.1 0.04,2.13 -0.68,6.71 -3.93,3.97 -1.74,8.07 4.99,4.11 8.28,0.69 1.48,3.93 -3.24,4.19 -2.12,7.27 1.11,3.07 3.97,1.48 5.67,4.35z"/>
      </g>
     </g>
     <g>
      <g>
       <path class="fil1" d="M0 218.77c1.4,1.25 0.17,6.45 2.43,6.89 2.1,0.41 5,-3.65 7.33,-3.93 -1.26,1.75 -2.17,3.77 -4.52,7.12 1.06,-0.06 3.3,1 5.31,2.87 2.01,-1.14 3.21,-4.26 4.37,-6.55 0.55,-1.08 2.16,-3.2 6.05,-1.91 0.02,-4.36 -2.87,-6.05 -7.41,-3.17 4.91,-12.23 1.35,-12.13 -7.38,-3.9 2.21,-5.36 4.49,-21.64 -4.03,-9.45 0.14,-2.79 1.51,-7.9 -1.91,-9.83 -0.08,0.05 -0.16,0.1 -0.24,0.15l0 21.71z"/>
       <path class="fil1" d="M9.07 237.74c8.57,-13.03 13.7,-12.82 10.25,-4.28 8.28,-5.44 15.31,2.38 13.1,7.74 -2.29,-2.26 -9.46,-2.79 -13.59,1.45 4.78,3.61 9.52,-2.17 13.18,0.84 -2.36,0.57 -3.36,1.73 -5.94,4.15 5.22,2.36 9.16,-6.03 11.55,-2.5 1.75,2.58 0,6.89 -5.6,5.84 1.42,4.37 5.28,0.72 7.06,3.81 1.42,2.48 -4.46,5.98 -10.67,2.36 -0.25,1.34 0.07,2.23 0.73,2.85l-6.33 0c-0.73,-2.39 -2.28,-5.18 -3.15,-5.75 4.54,0.67 3.64,0.42 7.7,0.1 -2.71,-1.9 -6.89,-3.16 -8.08,-4.88 2.44,0.12 3.62,-0.87 4.17,-2.37 -6.86,0.96 -11.04,-2.7 -12.89,-5.08 2.64,1.02 3.92,0.4 5.6,-0.85 -3.24,-3.23 -6.55,-3.07 -7.09,-3.43zm9.93 22.26c-0.18,-1.13 -0.27,-2.13 -0.08,-2.78 0.8,1.14 1.54,2.01 2.24,2.78l-2.16 0z"/>
       <path class="fil1" d="M8.85 242.98c1.75,3.66 7.75,6.01 7.83,12.19 0.02,1.65 -0.4,3.27 -0.97,4.83l-4.74 0c3.53,-9.91 -2.81,-9.63 -2.12,-17.02z"/>
       <path class="fil1" d="M0 228.1c2.43,0 2.43,6.27 0,6.27l0 -6.27z"/>
       <path class="fil1" d="M0 239.7c2.4,0.04 2.4,6.24 0,6.28l0 -6.28z"/>
       <path class="fil1" d="M7.73 241.52c-1.22,2.11 -6.66,-1.03 -5.44,-3.14 1.22,-2.11 6.65,1.03 5.44,3.14z"/>
       <path class="fil1" d="M7.74 232.58c1.21,2.1 -4.22,5.24 -5.44,3.14 -1.22,-2.11 4.22,-5.25 5.44,-3.14z"/>
       <path class="fil1" d="M3.37 243.7c4.94,2.42 6.67,10.16 5.2,16.3l-8.57 0 0 -11.26c2.05,-0.02 3.17,-2.41 3.37,-5.04z"/>
      </g>
      <g>
       <path class="fil1" d="M129.87 218.67c0.05,0.03 0.09,0.07 0.13,0.1l0 -21.71c-3.13,2.03 -2.29,6.96 -2.15,9.68 -8.52,-12.19 -6.24,4.09 -4.03,9.45 -8.73,-8.23 -12.29,-8.33 -7.38,3.9 -4.54,-2.88 -7.44,-1.19 -7.41,3.17 3.89,-1.29 5.5,0.83 6.05,1.91 1.16,2.29 2.36,5.41 4.37,6.55 2.01,-1.87 4.25,-2.93 5.31,-2.87 -2.35,-3.35 -3.26,-5.37 -4.52,-7.12 2.33,0.28 5.23,4.34 7.33,3.93 2.33,-0.46 0.7,-5.94 2.3,-6.99z"/>
       <path class="fil1" d="M130 228.1l0 0 0 6.27 0 0c-2.43,0 -2.43,-6.27 0,-6.27z"/>
       <path class="fil1" d="M122.25 232.56c1.22,-2.11 6.66,1.03 5.44,3.14 -1.22,2.1 -6.66,-1.03 -5.44,-3.14z"/>
       <path class="fil1" d="M122.24 241.5c-1.22,-2.11 4.22,-5.25 5.44,-3.14 1.21,2.11 -4.22,5.25 -5.44,3.14z"/>
       <path class="fil1" d="M129.98 245.98c-2.44,0 -2.44,-6.28 0,-6.28l0.02 0 0 6.28 -0.02 0z"/>
       <path class="fil1" d="M121.15 242.98c-1.75,3.66 -7.76,6.01 -7.83,12.19 -0.02,1.65 0.39,3.27 0.97,4.83l4.73 0c-3.52,-9.91 2.81,-9.63 2.13,-17.02z"/>
       <path class="fil1" d="M120.93 237.74c-8.57,-13.03 -13.7,-12.82 -10.25,-4.28 -8.28,-5.44 -15.31,2.38 -13.1,7.74 2.29,-2.26 9.45,-2.79 13.58,1.45 -4.78,3.61 -9.51,-2.17 -13.17,0.84 2.36,0.57 3.35,1.73 5.94,4.15 -5.22,2.36 -9.16,-6.03 -11.55,-2.5 -1.75,2.58 0,6.89 5.6,5.84 -1.42,4.37 -5.28,0.72 -7.06,3.81 -1.42,2.48 4.46,5.98 10.67,2.36 0.25,1.34 -0.07,2.23 -0.73,2.85l6.33 0c0.72,-2.39 2.27,-5.18 3.15,-5.75 -4.54,0.67 -3.65,0.42 -7.7,0.1 2.7,-1.9 6.89,-3.16 8.08,-4.88 -2.44,0.12 -3.62,-0.87 -4.17,-2.37 6.86,0.96 11.04,-2.7 12.89,-5.08 -2.64,1.02 -3.92,0.4 -5.6,-0.85 3.24,-3.23 6.54,-3.07 7.09,-3.43zm-9.94 22.26c0.19,-1.13 0.27,-2.13 0.09,-2.78 -0.8,1.14 -1.54,2.01 -2.24,2.78l2.15 0z"/>
       <path class="fil1" d="M121.43 260c-1.47,-6.13 0.24,-13.84 5.15,-16.28 0.21,2.63 1.34,5.02 3.4,5.02l0.02 0 0 11.26 -8.57 0z"/>
      </g>
     </g>
    </g>
   </g>
  </g>
 </g>
</svg>
